<svg id="Capa_1" enable-background="new 0 0 515.556 515.556" height="512" viewBox="0 0 515.556 515.556" width="512" xmlns="http://www.w3.org/2000/svg"><path d="m291.955 14.156c18.875 18.875 18.875 49.478 0 68.354-18.875 18.875-49.478 18.875-68.354 0-18.875-18.875-18.875-49.478 0-68.354 18.875-18.875 49.478-18.875 68.354 0"/><path d="m332.968 141.964c-49.057-17.338-101.324-17.338-150.381 0-12.87 4.563-21.476 16.725-21.476 30.381v149.878c0 17.795 14.428 32.222 32.222 32.222v161.111h128.889v-161.111c17.795 0 32.222-14.428 32.222-32.222v-149.878c.001-13.657-8.605-25.819-21.476-30.381z"/></svg>